v 0.288463 -0.314000 1.736123
v 0.288463 -0.314000 3.396424
v -0.288463 -0.314000 1.736123
v -0.288463 -0.314000 3.396424
v 0.288463 0.314000 1.736123
v 0.288463 0.314000 3.396424
v -0.288463 0.314000 1.736123
v -0.288463 0.314000 3.396424
v -0.189141 0.184727 4.025087
v -0.189141 0.184727 3.493465
v 0.254771 0.184727 4.025087
v 0.254771 0.184727 3.493465
v -0.189141 -0.184727 4.025087
v -0.189141 -0.184727 3.493465
v 0.254771 -0.184727 4.025087
v 0.254771 -0.184727 3.493465
v 0.151590 0.104367 0.322361
v 0.151590 0.104367 1.650607
v -0.151590 0.104367 0.322361
v -0.151590 0.104367 1.650607
v 0.151590 0.407546 0.322361
v 0.151590 0.407546 1.650607
v -0.151590 0.407546 0.322361
v -0.151590 0.407546 1.650607
v 0.411838 0.104367 0.000000
v -0.233453 0.104367 0.000000
v 0.411838 0.407546 0.000000
v -0.233453 0.407546 0.000000
v 0.411838 0.104367 0.227881
v -0.233453 0.104367 0.227881
v 0.411838 0.407546 0.227881
v -0.233453 0.407546 0.227881
v 0.045505 0.376526 1.797839
v 0.045505 0.376526 3.247407
v -0.155762 0.376526 1.797839
v -0.155762 0.376526 3.247407
v 0.045505 0.588396 1.797839
v 0.045505 0.588396 3.247407
v -0.155762 0.588396 1.797839
v -0.155762 0.588396 3.247407
v 0.151590 -0.104367 0.322361
v 0.151590 -0.104367 1.650607
v -0.151590 -0.104367 0.322361
v -0.151590 -0.104367 1.650607
v 0.151590 -0.407546 0.322361
v 0.151590 -0.407546 1.650607
v -0.151590 -0.407546 0.322361
v -0.151590 -0.407546 1.650607
v 0.411838 -0.104367 0.000000
v -0.233453 -0.104367 0.000000
v 0.411838 -0.407546 0.000000
v -0.233453 -0.407546 0.000000
v 0.411838 -0.104367 0.227881
v -0.233453 -0.104367 0.227881
v 0.411838 -0.407546 0.227881
v -0.233453 -0.407546 0.227881
v 0.045505 -0.376526 1.797839
v 0.045505 -0.376526 3.247407
v -0.155762 -0.376526 1.797839
v -0.155762 -0.376526 3.247407
v 0.045505 -0.588396 1.797839
v 0.045505 -0.588396 3.247407
v -0.155762 -0.588396 1.797839
v -0.155762 -0.588396 3.247407
v -0.288463 -0.314000 1.736123
v -0.288463 -0.314000 1.736123
v 0.288463 -0.314000 1.736123
v 0.288463 -0.314000 1.736123
v 0.288463 -0.314000 3.396424
v 0.288463 -0.314000 3.396424
v -0.288463 -0.314000 3.396424
v -0.288463 -0.314000 3.396424
v -0.288463 0.314000 1.736123
v -0.288463 0.314000 1.736123
v -0.288463 0.314000 3.396424
v -0.288463 0.314000 3.396424
v 0.288463 0.314000 1.736123
v 0.288463 0.314000 1.736123
v 0.288463 0.314000 3.396424
v 0.288463 0.314000 3.396424
v 0.254771 0.184727 4.025087
v 0.254771 0.184727 4.025087
v 0.254771 -0.184727 4.025087
v 0.254771 -0.184727 4.025087
v 0.254771 -0.184727 3.493465
v 0.254771 -0.184727 3.493465
v 0.254771 0.184727 3.493465
v 0.254771 0.184727 3.493465
v -0.189141 0.184727 4.025087
v -0.189141 0.184727 4.025087
v -0.189141 0.184727 3.493465
v -0.189141 0.184727 3.493465
v -0.189141 -0.184727 4.025087
v -0.189141 -0.184727 4.025087
v -0.189141 -0.184727 3.493465
v -0.189141 -0.184727 3.493465
v -0.151590 0.104367 0.322361
v -0.151590 0.104367 0.322361
v 0.151590 0.104367 0.322361
v 0.151590 0.104367 0.322361
v 0.151590 0.104367 1.650607
v 0.151590 0.104367 1.650607
v -0.151590 0.104367 1.650607
v -0.151590 0.104367 1.650607
v -0.151590 0.407546 0.322361
v -0.151590 0.407546 0.322361
v -0.151590 0.407546 1.650607
v -0.151590 0.407546 1.650607
v 0.151590 0.407546 0.322361
v 0.151590 0.407546 0.322361
v 0.151590 0.407546 1.650607
v 0.151590 0.407546 1.650607
v -0.233453 0.104367 0.000000
v -0.233453 0.104367 0.000000
v 0.411838 0.104367 0.000000
v 0.411838 0.104367 0.000000
v -0.233453 0.407546 0.000000
v -0.233453 0.407546 0.000000
v 0.411838 0.407546 0.000000
v 0.411838 0.407546 0.000000
v -0.233453 0.104367 0.227881
v -0.233453 0.104367 0.227881
v 0.411838 0.104367 0.227881
v 0.411838 0.104367 0.227881
v -0.233453 0.407546 0.227881
v -0.233453 0.407546 0.227881
v 0.411838 0.407546 0.227881
v 0.411838 0.407546 0.227881
v -0.155762 0.376526 1.797839
v -0.155762 0.376526 1.797839
v 0.045505 0.376526 1.797839
v 0.045505 0.376526 1.797839
v 0.045505 0.376526 3.247407
v 0.045505 0.376526 3.247407
v -0.155762 0.376526 3.247407
v -0.155762 0.376526 3.247407
v -0.155762 0.588396 1.797839
v -0.155762 0.588396 1.797839
v -0.155762 0.588396 3.247407
v -0.155762 0.588396 3.247407
v 0.045505 0.588396 1.797839
v 0.045505 0.588396 1.797839
v 0.045505 0.588396 3.247407
v 0.045505 0.588396 3.247407
v -0.151590 -0.104367 0.322361
v -0.151590 -0.104367 0.322361
v 0.151590 -0.104367 0.322361
v 0.151590 -0.104367 0.322361
v 0.151590 -0.104367 1.650607
v 0.151590 -0.104367 1.650607
v -0.151590 -0.104367 1.650607
v -0.151590 -0.104367 1.650607
v -0.151590 -0.407546 0.322361
v -0.151590 -0.407546 0.322361
v -0.151590 -0.407546 1.650607
v -0.151590 -0.407546 1.650607
v 0.151590 -0.407546 0.322361
v 0.151590 -0.407546 0.322361
v 0.151590 -0.407546 1.650607
v 0.151590 -0.407546 1.650607
v -0.233453 -0.104367 0.000000
v -0.233453 -0.104367 0.000000
v 0.411838 -0.104367 0.000000
v 0.411838 -0.104367 0.000000
v -0.233453 -0.407546 0.000000
v -0.233453 -0.407546 0.000000
v 0.411838 -0.407546 0.000000
v 0.411838 -0.407546 0.000000
v -0.233453 -0.104367 0.227881
v -0.233453 -0.104367 0.227881
v 0.411838 -0.104367 0.227881
v 0.411838 -0.104367 0.227881
v -0.233453 -0.407546 0.227881
v -0.233453 -0.407546 0.227881
v 0.411838 -0.407546 0.227881
v 0.411838 -0.407546 0.227881
v -0.155762 -0.376526 1.797839
v -0.155762 -0.376526 1.797839
v 0.045505 -0.376526 1.797839
v 0.045505 -0.376526 1.797839
v 0.045505 -0.376526 3.247407
v 0.045505 -0.376526 3.247407
v -0.155762 -0.376526 3.247407
v -0.155762 -0.376526 3.247407
v -0.155762 -0.588396 1.797839
v -0.155762 -0.588396 1.797839
v -0.155762 -0.588396 3.247407
v -0.155762 -0.588396 3.247407
v 0.045505 -0.588396 1.797839
v 0.045505 -0.588396 1.797839
v 0.045505 -0.588396 3.247407
v 0.045505 -0.588396 3.247407
vn 0.0000 -1.0000 0.0000
vn -1.0000 0.0000 0.0000
vn 0.0000 1.0000 0.0000
vn 1.0000 0.0000 0.0000
vn 0.0000 0.0000 -1.0000
vn 0.0000 0.0000 1.0000
f 69//1 65//1 67//1
f 66//2 75//2 73//2
f 76//3 77//3 74//3
f 80//4 68//4 78//4
f 7//5 1//5 3//5
f 4//6 6//6 8//6
f 92//5 85//5 95//5
f 93//2 91//2 96//2
f 84//1 14//1 86//1
f 81//4 16//4 88//4
f 13//6 82//6 89//6
f 9//3 12//3 10//3
f 101//1 97//1 99//1
f 104//2 105//2 98//2
f 108//3 109//3 106//3
f 112//4 100//4 110//4
f 23//5 17//5 19//5
f 20//6 22//6 24//6
f 117//5 115//5 113//5
f 123//6 125//6 121//6
f 124//1 114//1 116//1
f 128//4 25//4 120//4
f 30//2 118//2 26//2
f 32//3 27//3 28//3
f 133//1 129//1 131//1
f 136//2 137//2 130//2
f 140//3 141//3 138//3
f 144//4 132//4 142//4
f 39//5 33//5 35//5
f 36//6 38//6 40//6
f 145//3 149//3 147//3
f 153//2 152//2 146//2
f 157//1 156//1 154//1
f 148//4 160//4 158//4
f 41//5 47//5 43//5
f 46//6 44//6 48//6
f 163//5 165//5 161//5
f 173//6 171//6 169//6
f 162//3 172//3 164//3
f 49//4 176//4 168//4
f 166//2 54//2 50//2
f 51//1 56//1 52//1
f 177//3 181//3 179//3
f 185//2 184//2 178//2
f 189//1 188//1 186//1
f 180//4 192//4 190//4
f 57//5 63//5 59//5
f 62//6 60//6 64//6
f 69//1 71//1 65//1
f 66//2 72//2 75//2
f 76//3 79//3 77//3
f 80//4 70//4 68//4
f 7//5 5//5 1//5
f 4//6 2//6 6//6
f 92//5 87//5 85//5
f 93//2 90//2 91//2
f 84//1 94//1 14//1
f 81//4 83//4 16//4
f 13//6 15//6 82//6
f 9//3 11//3 12//3
f 101//1 103//1 97//1
f 104//2 107//2 105//2
f 108//3 111//3 109//3
f 112//4 102//4 100//4
f 23//5 21//5 17//5
f 20//6 18//6 22//6
f 117//5 119//5 115//5
f 123//6 127//6 125//6
f 124//1 122//1 114//1
f 128//4 29//4 25//4
f 30//2 126//2 118//2
f 32//3 31//3 27//3
f 133//1 135//1 129//1
f 136//2 139//2 137//2
f 140//3 143//3 141//3
f 144//4 134//4 132//4
f 39//5 37//5 33//5
f 36//6 34//6 38//6
f 145//3 151//3 149//3
f 153//2 155//2 152//2
f 157//1 159//1 156//1
f 148//4 150//4 160//4
f 41//5 45//5 47//5
f 46//6 42//6 44//6
f 163//5 167//5 165//5
f 173//6 175//6 171//6
f 162//3 170//3 172//3
f 49//4 53//4 176//4
f 166//2 174//2 54//2
f 51//1 55//1 56//1
f 177//3 183//3 181//3
f 185//2 187//2 184//2
f 189//1 191//1 188//1
f 180//4 182//4 192//4
f 57//5 61//5 63//5
f 62//6 58//6 60//6
