# Blender v2.80 (sub 75) OBJ File: 'Cylinder.blend'
# www.blender.org
v -1.000000 0.000000 0.000000
v -1.000000 0.000000 4.200000
v -0.923880 0.382683 0.000000
v -0.923880 0.382683 4.200000
v -0.707107 0.707107 0.000000
v -0.707107 0.707107 4.200000
v -0.382683 0.923880 0.000000
v -0.382683 0.923880 4.200000
v 0.000000 1.000000 0.000000
v 0.000000 1.000000 4.200000
v 0.382684 0.923880 0.000000
v 0.382684 0.923880 4.200000
v 0.707107 0.707107 0.000000
v 0.707107 0.707107 4.200000
v 0.923880 0.382683 0.000000
v 0.923880 0.382683 4.200000
v 1.000000 0.000000 0.000000
v 1.000000 0.000000 4.200000
v 0.923880 -0.382683 0.000000
v 0.923880 -0.382683 4.200000
v 0.707107 -0.707107 0.000000
v 0.707107 -0.707107 4.200000
v 0.382684 -0.923880 0.000000
v 0.382684 -0.923880 4.200000
v -0.000000 -1.000000 0.000000
v -0.000000 -1.000000 4.200000
v -0.382684 -0.923879 0.000000
v -0.382684 -0.923879 4.200000
v -0.707107 -0.707107 0.000000
v -0.707107 -0.707107 4.200000
v -0.923880 -0.382683 0.000000
v -0.923880 -0.382683 4.200000
v -1.000000 0.000000 0.000000
v -0.923880 0.382683 0.000000
v -0.923880 0.382683 4.200000
v -0.923880 0.382683 4.200000
v -1.000000 0.000000 4.200000
v -1.000000 0.000000 4.200000
v -0.707107 0.707107 0.000000
v -0.707107 0.707107 4.200000
v -0.707107 0.707107 4.200000
v -0.382683 0.923880 0.000000
v -0.382683 0.923880 4.200000
v -0.382683 0.923880 4.200000
v 0.000000 1.000000 0.000000
v 0.000000 1.000000 4.200000
v 0.000000 1.000000 4.200000
v 0.382684 0.923880 0.000000
v 0.382684 0.923880 4.200000
v 0.382684 0.923880 4.200000
v 0.707107 0.707107 0.000000
v 0.707107 0.707107 4.200000
v 0.707107 0.707107 4.200000
v 0.923880 0.382683 0.000000
v 0.923880 0.382683 4.200000
v 0.923880 0.382683 4.200000
v 1.000000 0.000000 0.000000
v 1.000000 0.000000 4.200000
v 1.000000 0.000000 4.200000
v 0.923880 -0.382683 0.000000
v 0.923880 -0.382683 4.200000
v 0.923880 -0.382683 4.200000
v 0.707107 -0.707107 0.000000
v 0.707107 -0.707107 4.200000
v 0.707107 -0.707107 4.200000
v 0.382684 -0.923880 0.000000
v 0.382684 -0.923880 4.200000
v 0.382684 -0.923880 4.200000
v -0.000000 -1.000000 0.000000
v -0.000000 -1.000000 4.200000
v -0.000000 -1.000000 4.200000
v -0.382684 -0.923879 0.000000
v -0.382684 -0.923879 4.200000
v -0.382684 -0.923879 4.200000
v -0.707107 -0.707107 0.000000
v -0.707107 -0.707107 4.200000
v -0.707107 -0.707107 4.200000
v -0.923880 -0.382683 0.000000
v -0.923880 -0.382683 4.200000
v -0.923880 -0.382683 4.200000
vn -0.9808 0.1951 0.0000
vn -0.8315 0.5556 0.0000
vn -0.5556 0.8315 0.0000
vn -0.1951 0.9808 0.0000
vn 0.1951 0.9808 0.0000
vn 0.5556 0.8315 0.0000
vn 0.8315 0.5556 0.0000
vn 0.9808 0.1951 0.0000
vn 0.9808 -0.1951 0.0000
vn 0.8315 -0.5556 0.0000
vn 0.5556 -0.8315 0.0000
vn 0.1951 -0.9808 0.0000
vn -0.1951 -0.9808 0.0000
vn -0.5556 -0.8315 0.0000
vn -0.0000 0.0000 1.0000
vn -0.8315 -0.5556 0.0000
vn -0.9808 -0.1951 0.0000
s off
f 37//1 34//1 33//1
f 36//2 39//2 3//2
f 41//3 42//3 5//3
f 44//4 45//4 7//4
f 47//5 48//5 9//5
f 50//6 51//6 11//6
f 53//7 54//7 13//7
f 56//8 57//8 15//8
f 59//9 60//9 17//9
f 62//10 63//10 19//10
f 65//11 66//11 21//11
f 68//12 69//12 23//12
f 71//13 72//13 25//13
f 74//14 75//14 27//14
f 6//15 77//15 22//15
f 30//16 78//16 29//16
f 32//17 1//17 31//17
f 37//1 35//1 34//1
f 36//2 40//2 39//2
f 41//3 43//3 42//3
f 44//4 46//4 45//4
f 47//5 49//5 48//5
f 50//6 52//6 51//6
f 53//7 55//7 54//7
f 56//8 58//8 57//8
f 59//9 61//9 60//9
f 62//10 64//10 63//10
f 65//11 67//11 66//11
f 68//12 70//12 69//12
f 71//13 73//13 72//13
f 74//14 76//14 75//14
f 6//15 4//15 38//15
f 38//15 79//15 77//15
f 77//15 28//15 26//15
f 26//15 24//15 22//15
f 22//15 20//15 18//15
f 18//15 16//15 14//15
f 14//15 12//15 10//15
f 10//15 8//15 14//15
f 8//15 6//15 14//15
f 6//15 38//15 77//15
f 77//15 26//15 22//15
f 22//15 18//15 6//15
f 18//15 14//15 6//15
f 30//16 80//16 78//16
f 32//17 2//17 1//17
